/* XPM */
static char * pytele_small_xpm[] = {
"32 32 20 1",
" 	c None",
".	c #2A6F0D",
"+	c #2E7615",
"@	c #2F7D19",
"#	c #377B1B",
"$	c #438028",
"%	c #478428",
"&	c #518E38",
"*	c #659A4C",
"=	c #83AF6E",
"-	c #95BD84",
";	c #ACCE9D",
">	c #B6D7A7",
",	c #BCD6AD",
"'	c #C4DFB5",
")	c #D0E7C6",
"!	c #D9EACF",
"~	c #D5EDD1",
"{	c #E0F0D6",
"]	c #F0FBE8",
"              %%%%              ",
"           #..$$&#..#%          ",
"         #$='{]]]]]'-$+%        ",
"       #$;]]]]]]]]]]]],&#       ",
"      #=]]]]]]]]]]]]]]]]=#      ",
"     #;]]])-&#+.+..*-~]]],#     ",
"    #;]]{$............&!]];#    ",
"   $*]]]=.+.++.....+...=]]]=#   ",
"   $!]]{#.....@..++.....!]]{#   ",
"  #=]]]-..+-*.++.++.....-]]]-#  ",
"  .{]]]$..*;)+++.@+&--+.*]]~>.  ",
" #*]]]]=..&>-.+@.@......;]],)&# ",
" #-]]]]!+......+.+.....#]]]>!-# ",
" .,]]]]]=.....++.@.....=]]'~);. ",
" .~]]]]]~.....@..++....)]]>~!'. ",
" .{]]]]]]*....@...@...$~]~'{~). ",
" .{]]]]]]~....+...@...=;],)~{). ",
" .~]]]]]]]*...@...+..+)>]>~{)'+ ",
" .,]>>>{]'-...+...@..&~);))~~;. ",
" #-)'~~>;'~&.++...++.;~~>~~){=# ",
" #&>~~~)~~~;.+.....@$~~)~{{){&# ",
"  .'))~~~~~~&@.....+=~)~{~)~'.  ",
"  #*{~~~~~~~;+.....@'~~)~~~~=#  ",
"   #')~~){~~~*%&+&&=~{{~~~!).   ",
"   %*!~{){!)~~~~*~)!))~~{))*%   ",
"    #=~)~)~~~~~,=-~~~~{{)~=#    ",
"     #=~~~~~~~)-{-~~~)~){-#     ",
"      #*)~{~~~~;);){{~~)*#      ",
"       ##=){{){){'~)))=#$       ",
"         #.*-')~){'-*##         ",
"           ##.##@#.#$           ",
"                                "};
